<svg xmlns="http://www.w3.org/2000/svg" viewBox="0 0 522 500"><defs><style>.cls-1{fill:#fff;}</style></defs><g id="Layer_1" data-name="Layer 1"><rect class="cls-1" x="218.54" y="132.44" width="303.4" height="75.85" rx="37.93"/><rect class="cls-1" x="-0.19" y="1.9" width="303.4" height="75.85" rx="37.93"/><rect class="cls-1" x="-0.19" y="262.97" width="218.73" height="75.85" rx="37.93"/><rect class="cls-1" x="361.42" y="262.97" width="160.52" height="75.85" rx="37.93"/><circle class="cls-1" cx="147.1" cy="170.36" r="37.93"/><circle class="cls-1" cx="289.98" cy="300.9" r="37.93"/><circle class="cls-1" cx="37.74" cy="170.36" r="37.93"/><circle class="cls-1" cx="484.02" cy="41.59" r="37.93"/><circle class="cls-1" cx="374.65" cy="39.83" r="37.93"/><path class="cls-1" d="M100.12,399.45c6.88,0,11-4.27,11-10.61s-4.08-10.61-11-10.61-11,5.4-11,11.74S93.23,399.45,100.12,399.45Z"/><path class="cls-1" d="M114.17,459.56h-3.61a1.69,1.69,0,0,1-1.69-1.69V407a1.7,1.7,0,0,0-1.7-1.69H86.29A1.69,1.69,0,0,0,84.6,407v9.76a1.69,1.69,0,0,0,1.69,1.69h6.24v39.41a1.69,1.69,0,0,1-1.69,1.69H87.57a1.69,1.69,0,0,0-1.69,1.69v11.22a1.69,1.69,0,0,0,1.69,1.69h26.6a1.69,1.69,0,0,0,1.7-1.69V461.25A1.7,1.7,0,0,0,114.17,459.56Z"/><path class="cls-1" d="M154.48,428.7c-16.45-2.55-17.85-2.68-17.85-7.64,0-3.89,3.5-7.38,11-7.38a25.34,25.34,0,0,1,8.32,1.61,1.68,1.68,0,0,1,1.13,1.6v4.22a1.69,1.69,0,0,0,1.69,1.69h11.32a1.69,1.69,0,0,0,1.69-1.69V406.67a1.7,1.7,0,0,0-1.1-1.59,63.42,63.42,0,0,0-22.59-4.27c-16.33,0-26.83,8.44-26.83,22.93,0,10.32,4.67,16.9,16,18.77,18.79,3.09,22.17,4,22.17,9.39,0,5.77-5.83,8.58-11.9,8.58a34.15,34.15,0,0,1-9.71-1.87,1.68,1.68,0,0,1-1.14-1.6v-5.29a1.7,1.7,0,0,0-1.69-1.7H123.62a1.7,1.7,0,0,0-1.69,1.7V468.6a1.7,1.7,0,0,0,1.09,1.59c6,2.31,16.47,4,22.94,4,18.56,0,28.82-9.38,28.82-24.27C174.78,436.88,169,431,154.48,428.7Z"/><path class="cls-1" d="M499.83,429.83c-16.45-2.55-17.85-2.68-17.85-7.65,0-3.89,3.5-7.37,11-7.37a25.35,25.35,0,0,1,8.33,1.61A1.68,1.68,0,0,1,502.4,418v4.22a1.69,1.69,0,0,0,1.69,1.7h11.32a1.7,1.7,0,0,0,1.69-1.7V407.8a1.69,1.69,0,0,0-1.1-1.59,63.49,63.49,0,0,0-22.59-4.28c-16.33,0-26.83,7.32-26.83,21.81,0,10.32,4.66,18,16,19.9,18.79,3.09,22.17,4,22.17,9.39,0,5.77-5.83,8.58-11.9,8.58a34.15,34.15,0,0,1-9.71-1.87,1.67,1.67,0,0,1-1.14-1.6v-5.29a1.7,1.7,0,0,0-1.7-1.7H469a1.69,1.69,0,0,0-1.69,1.7v16.88a1.7,1.7,0,0,0,1.09,1.59c6,2.31,16.47,4,22.94,4,18.55,0,28.82-9.39,28.82-24.27C520.13,438,514.3,432.11,499.83,429.83Z"/><path class="cls-1" d="M332.68,459.92h-3.54a1.78,1.78,0,0,1-1.78-1.78v-51a1.78,1.78,0,0,0-1.77-1.78H304.31a1.78,1.78,0,0,0-1.78,1.78v9.75a1.78,1.78,0,0,0,1.78,1.78h4.19a1.78,1.78,0,0,1,1.77,1.79v22.71c0,10.13-5.86,16.41-13.32,16.41-7.83,0-11.25-3.46-11.25-15.64V407.34a1.77,1.77,0,0,0-1.77-1.78H261.8a1.78,1.78,0,0,0-1.77,1.78v9.51a1.78,1.78,0,0,0,1.77,1.78h5a1.79,1.79,0,0,1,1.78,1.79v30.79c0,13,6.6,23,21.51,23,7.74,0,13.46-2.24,17.58-7.23a1.77,1.77,0,0,1,3.13,1.14v3.13a1.78,1.78,0,0,0,1.77,1.78h20.69a1.19,1.19,0,0,0,1.19-1.19V461.7A1.78,1.78,0,0,0,332.68,459.92Z"/><path class="cls-1" d="M363.8,453.85V420.56a1.7,1.7,0,0,1,1.69-1.7h6.77a1.7,1.7,0,0,0,1.7-1.69V407a1.7,1.7,0,0,0-1.7-1.69h-6.77a1.69,1.69,0,0,1-1.69-1.69V382.18a1.69,1.69,0,0,0-1.69-1.69H348.56a1.69,1.69,0,0,0-1.69,1.69v21.45a1.69,1.69,0,0,1-1.69,1.69h-6.77a1.7,1.7,0,0,0-1.7,1.69v10.16a1.7,1.7,0,0,0,1.7,1.69h6.77a1.7,1.7,0,0,1,1.69,1.7v45.7a6.77,6.77,0,0,0,6.77,6.77h24.27a1.69,1.69,0,0,0,1.69-1.69V461.18a1.69,1.69,0,0,0-1.69-1.69h-8.47A5.64,5.64,0,0,1,363.8,453.85Z"/><path class="cls-1" d="M414,403.29a29.48,29.48,0,0,1,20.2,7.73A1.69,1.69,0,0,0,437,410l.36-3.51a1.7,1.7,0,0,1,1.69-1.52h19.69a1.7,1.7,0,0,1,1.69,1.7v12a1.69,1.69,0,0,1-1.69,1.69H453.1a1.7,1.7,0,0,0-1.69,1.7V456.8a1.69,1.69,0,0,0,1.69,1.69h5.68a1.69,1.69,0,0,1,1.69,1.69V471.9a1.7,1.7,0,0,1-1.69,1.7H439.1a1.69,1.69,0,0,1-1.68-1.54l-.27-2.8a1.69,1.69,0,0,0-2.88-1,26.41,26.41,0,0,1-18.84,7.43c-16.44,0-31.71-13.32-31.71-36.12C383.72,415.23,397.83,403.29,414,403.29Zm4.27,58.09c12.42,0,18.51-9.75,18.51-22,0-11.94-5.7-21.42-18.38-21.42-12,0-19.67,8.93-19.67,22.52C398.74,453.27,406.5,461.38,418.28,461.38Z"/><path class="cls-1" d="M28.28,404.35a29.9,29.9,0,0,1,20,7.49,1.7,1.7,0,0,0,2.85-1.22l.08-16.15a1.68,1.68,0,0,0-1.55-1.69l-6.06-.51A1.69,1.69,0,0,1,42,390.59v-8.94a1.7,1.7,0,0,1,1.7-1.7H64a1.7,1.7,0,0,1,1.7,1.7v75.09a1.69,1.69,0,0,0,1.69,1.69h5.69a1.69,1.69,0,0,1,1.69,1.68l.11,12.35a1.7,1.7,0,0,1-1.7,1.7H53.85a1.7,1.7,0,0,1-1.68-1.49c-.26-2-.79-3.95-1.11-6.38-5.17,7-12.81,10.43-21.35,10.43C13.27,476.72-2,463.4-2,440.61-2,416.3,12.11,404.35,28.28,404.35Zm4.28,58.09c12.42,0,18.5-9.75,18.5-22,0-12-5.69-21.43-18.38-21.43C20.65,419,13,428,13,441.57,13,454.34,20.78,462.44,32.56,462.44Z"/><path class="cls-1" d="M211.87,487.18v11.38a1.69,1.69,0,0,1-1.7,1.69H180.82a1.69,1.69,0,0,1-1.7-1.69V487.18a1.69,1.69,0,0,1,1.7-1.69h5.67a1.69,1.69,0,0,0,1.69-1.7V422.25a1.68,1.68,0,0,0-1.69-1.69h-5.67a1.7,1.7,0,0,1-1.7-1.7V407.35a1.7,1.7,0,0,1,1.7-1.7h19.54a1.69,1.69,0,0,1,1.68,1.54c.11,1.09.21,2.18.33,3.28a1.69,1.69,0,0,0,2.83,1.06c5.3-4.86,12.46-7.34,20.39-7.34,15.91,0,30.15,11.44,30.15,34.73,0,22.48-15.14,35.26-31.58,35.26-8.67,0-16.31-3.33-21.35-10v19.59a1.7,1.7,0,0,0,1.69,1.7h5.67A1.69,1.69,0,0,1,211.87,487.18Zm9.19-68.89c-13.46,0-18.25,9.85-18.25,22.09,0,10.91,6.6,20,18.5,20,11.65,0,19.55-7.72,19.55-20.36C240.86,426.94,233,418.29,221.06,418.29Z"/></g></svg>